<?xml version="1.0" standalone="no"?>
<!DOCTYPE svg PUBLIC "-//W3C//DTD SVG 20010904//EN"
 "http://www.w3.org/TR/2001/REC-SVG-20010904/DTD/svg10.dtd">
<svg version="1.0" xmlns="http://www.w3.org/2000/svg"
 width="953.000000pt" height="953.000000pt" viewBox="0 0 953.000000 953.000000"
 preserveAspectRatio="xMidYMid meet">
<metadata>
Created by potrace 1.11, written by Peter Selinger 2001-2013
</metadata>
<g transform="translate(0.000000,953.000000) scale(0.100000,-0.100000)"
fill="#000000" stroke="none">
<path d="M7482 9442 c-26 -54 -59 -76 -139 -93 -29 -6 -53 -15 -53 -20 0 -5
-7 -9 -15 -9 -8 0 -15 -4 -15 -9 0 -5 -6 -9 -12 -8 -40 1 -59 -6 -90 -36 -40
-37 -70 -89 -67 -115 4 -44 -5 -66 -58 -146 -54 -79 -63 -87 -133 -122 -41
-21 -82 -39 -90 -41 -31 -8 -326 -9 -347 -2 -28 10 -109 12 -198 5 -38 -3
-104 -8 -145 -10 -91 -6 -182 -23 -190 -35 -11 -18 -58 -30 -101 -25 -46 6
-92 33 -109 65 -6 11 -21 19 -35 19 -14 0 -25 5 -25 10 0 6 -6 10 -14 10 -8 0
-21 9 -28 19 -8 11 -27 23 -43 27 -17 4 -39 13 -51 21 -38 24 -238 98 -328
120 -98 24 -549 38 -631 19 -22 -5 -69 -10 -105 -12 -86 -4 -139 -11 -170 -23
-14 -5 -56 -12 -95 -15 -77 -7 -124 -14 -137 -22 -5 -3 -30 -8 -55 -11 -26 -2
-64 -13 -85 -24 -21 -11 -38 -17 -38 -13 0 4 -7 1 -15 -6 -8 -7 -15 -9 -15 -5
0 4 -6 3 -12 -2 -10 -8 -77 -30 -118 -39 -3 0 -13 -4 -22 -8 -10 -5 -29 -9
-43 -10 -14 0 -25 -5 -25 -10 0 -4 -7 -6 -15 -2 -8 3 -15 0 -15 -6 0 -7 -4 -7
-14 1 -10 8 -16 8 -25 -3 -13 -16 -64 -28 -54 -14 3 6 -6 3 -20 -7 -14 -9 -36
-17 -49 -19 -13 -1 -29 -6 -36 -10 -7 -4 -12 -2 -12 3 0 6 -5 11 -11 11 -5 0
-8 -4 -5 -9 7 -11 -41 -29 -71 -26 -13 1 -23 -3 -23 -9 0 -6 -8 -2 -17 9 -13
16 -15 17 -10 3 5 -13 1 -18 -14 -18 -32 0 -130 -38 -170 -66 -20 -14 -46 -27
-56 -29 -10 -2 -19 -4 -20 -5 -2 -2 -6 -3 -10 -4 -26 -5 -160 -82 -171 -97 -7
-11 -25 -25 -40 -33 -50 -26 -178 -160 -221 -231 -24 -38 -61 -94 -84 -123
-72 -91 -103 -160 -142 -312 -21 -81 -25 -375 -6 -462 7 -32 14 -68 15 -80 2
-13 10 -39 18 -58 8 -19 18 -48 22 -65 10 -42 73 -200 104 -260 87 -172 139
-246 165 -237 5 1 6 -2 2 -8 -3 -6 -11 -7 -17 -4 -6 4 -8 1 -6 -7 3 -8 11 -13
17 -11 7 1 10 -2 6 -8 -4 -6 14 -42 38 -80 l44 -70 -24 -92 c-13 -51 -28 -113
-33 -138 -5 -25 -20 -97 -34 -160 -24 -115 -38 -209 -40 -265 -1 -16 -5 -36
-9 -42 -5 -7 -10 -23 -12 -35 -3 -13 -24 -42 -49 -64 -60 -57 -64 -75 -27
-132 29 -45 47 -84 58 -127 3 -11 7 -62 8 -113 2 -51 6 -107 9 -125 3 -17 8
-52 12 -77 3 -25 7 -51 10 -59 3 -8 7 -30 10 -50 5 -34 15 -81 49 -223 8 -35
16 -72 18 -83 2 -11 8 -30 15 -42 7 -12 12 -31 12 -43 0 -33 89 -224 120 -257
10 -12 38 -56 61 -100 22 -43 59 -102 81 -131 38 -51 39 -54 23 -78 -9 -14
-19 -23 -23 -20 -9 6 -88 -42 -84 -51 1 -4 -5 -8 -14 -9 -9 -2 -21 -7 -27 -13
-16 -16 -35 -13 -56 8 -74 74 -263 178 -303 168 -10 -3 -18 -2 -18 3 0 4 -45
8 -100 8 -55 0 -112 3 -127 6 -58 12 -188 25 -303 31 -117 5 -179 17 -272 51
-40 14 -90 26 -112 25 -25 0 -57 9 -93 29 -30 17 -59 27 -65 24 -6 -4 -8 -2
-4 4 6 10 -77 40 -136 48 -16 2 -43 7 -60 11 -54 12 -249 8 -303 -6 -69 -18
-125 -42 -125 -54 0 -6 -3 -8 -6 -4 -8 8 -123 -60 -155 -92 -15 -14 -53 -51
-84 -81 -74 -71 -111 -130 -162 -260 -49 -123 -67 -192 -60 -220 3 -11 1 -23
-4 -26 -5 -3 -9 -19 -9 -35 0 -17 -4 -38 -9 -47 -5 -9 -12 -109 -16 -222 -16
-433 -24 -1731 -11 -1810 4 -25 11 -67 16 -93 6 -26 10 -62 10 -80 0 -18 7
-53 15 -80 8 -26 22 -71 31 -100 24 -74 78 -188 104 -217 12 -14 36 -46 52
-72 48 -78 132 -145 246 -199 57 -27 109 -48 115 -47 7 1 29 -4 50 -11 43 -15
180 -20 275 -10 35 4 102 19 149 35 75 25 88 33 109 66 l24 38 168 2 c92 1
185 2 207 3 l40 0 6 -65 c3 -36 2 -146 -3 -245 -4 -99 -9 -241 -12 -315 -2
-74 -7 -145 -11 -158 l-7 -22 2951 0 2951 0 0 228 c0 150 -4 232 -11 239 -6 6
-23 8 -44 3 -41 -9 -80 -3 -96 16 -8 10 -8 14 0 14 15 0 131 114 131 129 0 7
-5 9 -12 5 -10 -6 -10 -4 0 7 6 7 12 30 12 50 0 49 16 90 32 84 14 -5 394 -59
488 -69 30 -4 93 -13 140 -22 91 -16 363 -56 498 -74 46 -6 90 -14 99 -17 14
-5 15 128 12 1328 l-4 1334 66 12 c83 15 141 21 202 22 l47 1 0 630 c0 518 -2
632 -13 636 -8 3 -54 -2 -103 -10 -49 -9 -107 -18 -129 -20 -22 -3 -193 -28
-380 -56 -187 -28 -356 -53 -375 -55 -19 -3 -87 -14 -150 -25 -63 -10 -162
-26 -220 -35 -58 -8 -116 -17 -130 -20 -14 -3 -45 -8 -70 -11 -25 -3 -64 -9
-87 -14 -23 -4 -47 -3 -55 1 -7 5 -22 6 -33 2 -11 -3 -31 -7 -45 -8 -14 -1
-50 -6 -80 -13 -30 -6 -92 -13 -137 -16 -45 -3 -102 -10 -125 -15 -24 -5 -72
-12 -108 -15 -36 -4 -94 -11 -130 -16 -117 -18 -144 -21 -210 -26 -36 -2 -119
-11 -185 -18 -116 -13 -145 -10 -145 16 0 5 7 16 15 24 8 8 12 21 9 28 -3 8 8
23 25 36 17 12 28 26 25 32 -4 6 -3 9 2 5 10 -6 103 35 113 50 3 5 21 19 39
32 21 14 31 29 28 38 -3 8 -1 11 4 8 10 -6 36 17 60 55 30 47 121 149 151 170
26 19 50 25 116 29 12 1 6 41 -7 41 -15 0 -64 168 -63 220 0 51 15 126 33 165
10 22 22 50 25 63 10 37 109 130 162 153 56 25 170 34 192 16 8 -7 16 -11 18
-9 3 2 10 2 28 -3 6 -1 15 -3 21 -3 18 -3 34 -52 36 -115 2 -57 2 -58 -46
-102 -26 -25 -52 -45 -57 -45 -5 0 -9 -5 -9 -11 0 -16 89 -8 126 11 56 29 101
75 123 124 23 53 26 92 11 146 -5 19 -11 52 -13 74 -3 21 -9 41 -15 45 -16 10
-29 71 -27 122 4 64 25 118 49 125 12 4 32 16 46 28 l25 20 -47 24 c-27 13
-46 27 -43 32 3 4 -1 10 -8 13 -8 3 -21 19 -29 37 -35 72 19 156 117 185 48
14 94 15 275 1 56 -4 180 17 225 38 30 15 104 98 149 167 9 14 18 48 20 76 8
113 66 166 175 158 35 -2 72 -7 84 -11 17 -5 15 -1 -9 19 -38 32 -79 49 -120
49 -35 0 -137 -45 -165 -73 -11 -11 -19 -17 -19 -14 0 3 -11 -1 -24 -10 -39
-26 -100 -27 -138 -2 -27 18 -33 30 -36 65 -2 24 2 49 8 57 6 8 9 18 6 23 -3
5 3 15 12 23 21 18 124 80 177 107 22 11 56 34 75 52 19 18 50 46 69 64 19 17
40 47 48 66 8 19 21 49 28 65 7 17 16 39 21 50 11 29 13 416 2 413 -5 -2 -21
-26 -36 -53 -15 -28 -32 -54 -38 -60 -6 -5 -26 -37 -45 -70 -58 -104 -122
-169 -176 -180 -74 -15 -91 -14 -113 10 -18 19 -21 32 -17 62 10 73 35 124 72
149 14 9 25 21 25 26 0 14 -56 0 -127 -33 -34 -16 -75 -32 -90 -35 -50 -13
-253 -130 -253 -146 0 -5 -8 -17 -17 -27 -62 -67 -116 -150 -175 -270 -48 -98
-100 -143 -243 -208 -28 -12 -60 -18 -148 -27 -73 -7 -169 33 -210 87 -62 81
-48 234 27 297 9 7 16 18 16 24 1 28 266 181 296 169 7 -2 23 2 36 11 24 15
26 16 56 16 9 0 28 10 42 23 14 12 47 39 73 60 26 21 47 45 47 52 0 23 54 102
80 118 16 9 45 13 80 11 71 -3 43 15 -34 22 -36 4 -63 1 -87 -10 -58 -27 -137
-74 -157 -94 -32 -32 -108 -81 -128 -82 -102 -7 -154 7 -198 53 -25 27 -28 36
-24 77 8 77 56 120 153 136 22 4 48 11 58 16 24 12 167 18 188 7 9 -4 31 -11
50 -14 19 -3 48 -10 66 -14 17 -5 34 -7 36 -4 3 2 42 6 86 8 59 3 94 10 126
26 25 12 48 20 51 16 4 -3 21 1 38 10 17 10 34 16 38 15 3 -1 12 5 18 13 7 8
17 15 22 15 36 0 233 179 227 207 -3 12 13 66 23 79 19 25 37 114 42 209 3 55
7 109 10 120 3 11 7 38 9 60 4 42 70 185 97 211 8 8 29 28 47 44 l32 29 -104
0 c-120 0 -144 9 -200 73 -33 38 -36 47 -30 82 8 52 31 89 65 104 15 7 40 24
55 37 14 14 46 30 70 35 25 6 62 17 82 25 21 8 65 19 98 25 71 12 163 45 189
68 59 52 97 143 64 154 -11 4 -88 -32 -113 -52 -25 -21 -130 -42 -174 -36 -25
4 -68 9 -96 11 -27 3 -62 10 -77 16 -32 13 -150 5 -183 -13 -61 -33 -168 -113
-183 -137 -9 -14 -24 -31 -32 -38 -8 -7 -11 -13 -7 -13 5 0 -3 -20 -17 -44
-14 -25 -26 -52 -26 -61 0 -8 -7 -26 -15 -39 -8 -12 -17 -38 -19 -57 -2 -19
-8 -47 -15 -62 -6 -16 -11 -36 -11 -45 0 -44 -44 -151 -76 -185 -20 -20 -32
-37 -27 -37 13 0 -98 -78 -143 -100 -39 -19 -77 -27 -154 -32 -56 -4 -106 19
-142 65 -18 23 -35 44 -39 47 -16 13 -31 86 -25 124 3 22 8 57 11 76 4 33 23
78 35 90 32 28 93 145 104 196 14 68 17 173 6 195 -18 32 -16 109 4 147 17 32
68 72 94 72 14 0 70 55 96 95 18 27 32 95 19 95 -4 -1 -18 -22 -31 -48z
m-2492 -1284 c17 -1 30 -5 30 -8 0 -4 15 -14 34 -22 22 -11 36 -26 41 -45 6
-24 1 -32 -32 -60 -21 -18 -43 -33 -50 -33 -6 0 -13 -4 -15 -8 -9 -21 -70 -52
-116 -58 -43 -5 -56 -3 -72 11 -11 10 -20 26 -20 36 0 27 -21 70 -51 106 -15
17 -28 36 -31 43 -2 6 -12 12 -23 14 -24 4 -23 18 2 23 47 10 231 18 251 11
12 -4 36 -9 52 -10z m-484 -75 c99 -102 128 -137 117 -140 -7 -3 -15 -20 -19
-38 -7 -38 -54 -92 -116 -132 -57 -39 -161 -39 -236 -2 l-53 27 -9 -22 c-5
-11 -24 -39 -44 -61 -20 -22 -36 -43 -36 -46 0 -9 -49 -29 -73 -29 -23 0 -179
-50 -187 -60 -3 -3 -25 -18 -50 -32 -25 -14 -66 -45 -90 -67 -25 -23 -67 -56
-95 -74 -49 -31 -52 -32 -162 -31 -107 1 -114 2 -154 30 -61 42 -99 106 -99
167 0 55 36 143 78 190 56 62 106 107 119 107 7 0 13 4 13 8 0 5 27 17 60 27
33 10 60 21 60 24 0 4 11 8 26 9 14 1 35 7 47 14 12 7 24 13 27 13 68 14 136
32 189 51 36 13 93 29 126 34 33 6 89 19 125 30 36 10 94 21 130 24 93 7 162
15 166 18 1 2 25 3 52 3 44 -1 53 -6 88 -42z m-1951 -2381 c-3 -4 -10 0 -15 8
-6 9 -5 17 3 22 13 8 24 -19 12 -30z m6262 -4928 c-3 -3 -12 -4 -19 -1 -8 3
-5 6 6 6 11 1 17 -2 13 -5z"/>
<path d="M4450 8106 c0 -2 7 -9 15 -16 13 -11 14 -10 9 4 -5 14 -24 23 -24 12z"/>
</g>
</svg>
