<svg xmlns="http://www.w3.org/2000/svg" xmlns:xlink="http://www.w3.org/1999/xlink" version="1.1" x="0px" y="0px" viewBox="0 0 100 125" enable-background="new 0 0 100 100" xml:space="preserve"><path d="M69.558,56.284c0,0-1.228,0.945-3.048,1.178v-9.945c1.028,0.033,2.062,0.131,3.045,0.295L69.558,56.284z M69.486,10.757  H66.51v34.2c1.519,0.101,2.977,0.43,2.977,0.43V10.757z M64.893,10.757h-2.978v34.63c0,0,1.455-0.331,2.978-0.432V10.757z   M71.323,48.757v7.706c5.746,2.393,9.809,8.231,9.809,15.062c0,8.96-6.986,16.225-15.602,16.225c-5.006,0-9.459-2.457-12.312-6.27  c-1.516,1.905-3.297,3.583-5.286,4.972C52.154,91.673,58.546,95,65.702,95c12.713,0,23.02-10.511,23.02-23.476  C88.722,60.538,81.32,51.316,71.323,48.757z M64.893,57.462v-9.938c-1.024,0.041-2.044,0.153-3.026,0.324l0.07,8.436  C62.968,56.995,63.972,57.339,64.893,57.462z M59.928,48.793c-2.033,0.537-3.954,1.351-5.728,2.396  c1.368,1.977,2.457,4.157,3.223,6.479c0.791-0.503,1.627-0.935,2.505-1.286V48.793z M43.197,76.479  c2.817-2.664,4.589-6.514,4.589-10.786c0-2.393-0.55-4.675-1.55-6.696c-2.249,3.626-3.556,7.919-3.556,12.528  C42.681,73.226,42.86,74.881,43.197,76.479z M39.922,43.003v7.702c5.747,2.393,9.806,8.234,9.806,15.064  c0,8.96-6.983,16.225-15.599,16.225c-8.616,0-15.6-7.265-15.6-16.225c0-6.905,4.15-12.799,9.997-15.142v-7.59  c-9.921,2.613-17.248,11.8-17.248,22.731c0,12.965,10.307,23.476,23.021,23.476c12.716,0,23.022-10.511,23.022-23.476  C57.321,54.783,49.918,45.56,39.922,43.003z M35.108,39.204c1.518,0.099,2.978,0.426,2.978,0.426V5h-2.978V39.204z M35.108,51.707  c1.82-0.234,3.048-1.178,3.048-1.178l-0.005-8.473c-0.983-0.164-2.015-0.262-3.043-0.295V51.707z M33.491,5h-2.978v34.63  c0,0,1.455-0.332,2.978-0.429V5z M33.491,41.769c-1.024,0.041-2.044,0.153-3.024,0.326l0.068,8.435  c1.031,0.712,2.034,1.055,2.956,1.178V41.769z"/><text x="0" y="115" fill="#000000" font-size="5px" font-weight="bold" font-family="'Helvetica Neue', Helvetica, Arial-Unicode, Arial, Sans-serif">Created by Cris Dobbins</text><text x="0" y="120" fill="#000000" font-size="5px" font-weight="bold" font-family="'Helvetica Neue', Helvetica, Arial-Unicode, Arial, Sans-serif">from the Noun Project</text></svg>