<svg xmlns="http://www.w3.org/2000/svg" xmlns:xlink="http://www.w3.org/1999/xlink" version="1.1" x="0px" y="0px" viewBox="0 0 100 125" enable-background="new 0 0 100 100" xml:space="preserve"><path d="M89.842,16.03l-48.946,5.68L9.391,9.41L54.156,5L89.842,16.03z M7.051,74.273l32.391,20.051l0.222-69.749L7.273,11.93  L7.051,74.273z M92.949,85.818L42.557,95l0.223-70.369l49.498-5.747L92.949,85.818z M77.659,28.765  c-0.16-1.494-1.502-2.573-2.994-2.411l-12.232,1.321c-1.492,0.163-2.572,1.502-2.41,2.994c0.161,1.492,1.503,2.572,2.995,2.411  l12.232-1.321C76.743,31.596,77.821,30.257,77.659,28.765z"/><text x="0" y="115" fill="#000000" font-size="5px" font-weight="bold" font-family="'Helvetica Neue', Helvetica, Arial-Unicode, Arial, Sans-serif">Created by Cris Dobbins</text><text x="0" y="120" fill="#000000" font-size="5px" font-weight="bold" font-family="'Helvetica Neue', Helvetica, Arial-Unicode, Arial, Sans-serif">from the Noun Project</text></svg>