<svg xmlns="http://www.w3.org/2000/svg" xmlns:xlink="http://www.w3.org/1999/xlink" version="1.1" x="0px" y="0px" viewBox="0 0 100 125" enable-background="new 0 0 100 100" xml:space="preserve"><path d="M71.409,26.986c-0.689-0.575-0.953-1.396-0.586-1.837l1.106-1.324c0.366-0.438,1.222-0.328,1.911,0.246l5.544,4.625  c0.691,0.575,0.95,1.398,0.585,1.836l-1.106,1.325c-0.365,0.439-1.219,0.33-1.911-0.245L71.409,26.986z M20.615,28.696  c-0.688,0.575-0.953,1.398-0.586,1.836l1.104,1.325c0.369,0.439,1.224,0.33,1.912-0.245l5.544-4.626  c0.689-0.575,0.951-1.396,0.586-1.837l-1.104-1.324c-0.366-0.438-1.224-0.328-1.911,0.246L20.615,28.696z M17.412,27.718  l8.359-6.972c1.04-0.866,1.434-2.105,0.881-2.769l-1.667-1.997c-0.552-0.662-1.841-0.496-2.88,0.37l-8.357,6.975  c-1.039,0.866-1.434,2.105-0.882,2.768l1.666,1.998C15.084,28.751,16.375,28.586,17.412,27.718z M85.934,59.065  C85.934,78.912,69.846,95,49.998,95c-19.846,0-35.932-16.088-35.932-35.935c0-18.348,13.752-33.473,31.51-35.654  c-0.083-0.181-0.137-0.382-0.137-0.596v-2.358c0-0.311,0.104-0.594,0.271-0.827c-2.198-1.416-3.657-3.879-3.657-6.682  C42.053,8.565,45.616,5,49.998,5c4.383,0,7.951,3.565,7.951,7.948c0,2.803-1.463,5.266-3.661,6.682  c0.168,0.233,0.269,0.517,0.269,0.827v2.358c0,0.214-0.048,0.415-0.136,0.596C72.181,25.593,85.934,40.718,85.934,59.065z   M49.998,17.601c2.566,0,4.652-2.087,4.652-4.652c0-2.564-2.086-4.651-4.652-4.651c-2.562,0-4.65,2.087-4.65,4.651  C45.348,15.514,47.437,17.601,49.998,17.601z M53.566,58.163c3.237-7.447-3.568-28.71-3.568-28.71s-5.168,16.133-4.365,25.22  c-7.616,0.312-17.952,3.278-17.952,3.278S53.054,65.235,53.566,58.163z M86.253,23.325l-8.359-6.975  c-1.04-0.866-2.33-1.032-2.88-0.37l-1.667,1.997c-0.552,0.663-0.156,1.902,0.88,2.769l8.36,6.972  c1.04,0.868,2.328,1.033,2.879,0.373l1.667-1.998C87.685,25.431,87.293,24.191,86.253,23.325z"/><text x="0" y="115" fill="#000000" font-size="5px" font-weight="bold" font-family="'Helvetica Neue', Helvetica, Arial-Unicode, Arial, Sans-serif">Created by Cris Dobbins</text><text x="0" y="120" fill="#000000" font-size="5px" font-weight="bold" font-family="'Helvetica Neue', Helvetica, Arial-Unicode, Arial, Sans-serif">from the Noun Project</text></svg>